name ./resultDataOpenSim/trcMotMarkerGrf/sub06/grf-14-05.mot
datacolumns 19
datarows 27
range 1.08400000 1.18800000
endheader

                time	     ground_force_vx	     ground_force_vy	     ground_force_vz	     ground_force_px	     ground_force_py	     ground_force_pz	   l_ground_force_vx	   l_ground_force_vy	   l_ground_force_vz	   l_ground_force_px	   l_ground_force_py	   l_ground_force_pz	     ground_torque_x	     ground_torque_y	     ground_torque_z	   l_ground_torque_x	   l_ground_torque_y	   l_ground_torque_z	
          1.08400000	          0.00000000	          0.00000000	          0.00000000	          0.00000000	          0.00000000	          0.00000000	        161.51689121	        635.73395638	        -21.24610914	          0.03207210	         -0.07499984	         -0.01182555	          0.00000000	          0.00000000	          0.00000000	          0.00000000	         -1.90732281	          0.00000000	
          1.08800000	          0.00000000	          0.00000000	          0.00000000	          0.00000000	          0.00000000	          0.00000000	        164.78625743	        621.48751959	        -21.96755534	          0.03297202	         -0.07499894	         -0.01130768	          0.00000000	          0.00000000	          0.00000000	          0.00000000	         -1.91303721	          0.00000000	
          1.09200000	          0.00000000	          0.00000000	          0.00000000	          0.00000000	          0.00000000	          0.00000000	        167.17198939	        603.92650855	        -22.55879757	          0.03377414	         -0.07499846	         -0.01088028	          0.00000000	          0.00000000	          0.00000000	          0.00000000	         -1.91174118	          0.00000000	
          1.09600000	          0.00000000	          0.00000000	          0.00000000	          0.00000000	          0.00000000	          0.00000000	        168.49937529	        582.86010425	        -22.99612553	          0.03449016	         -0.07499800	         -0.01055629	          0.00000000	          0.00000000	          0.00000000	          0.00000000	         -1.90620806	          0.00000000	
          1.10000000	          0.00000000	          0.00000000	          0.00000000	          0.00000000	          0.00000000	          0.00000000	        168.60687145	        558.21912606	        -23.25541078	          0.03519184	         -0.07499800	         -0.01030300	          0.00000000	          0.00000000	          0.00000000	          0.00000000	         -1.89787406	          0.00000000	
          1.10400000	          0.00000000	          0.00000000	          0.00000000	          0.00000000	          0.00000000	          0.00000000	        167.32089599	        530.12062122	        -23.31801946	          0.03597639	         -0.07499704	         -0.01005638	          0.00000000	          0.00000000	          0.00000000	          0.00000000	         -1.88642964	          0.00000000	
          1.10800000	          0.00000000	          0.00000000	          0.00000000	          0.00000000	          0.00000000	          0.00000000	        164.44859117	        498.82523352	        -23.17203192	          0.03692320	         -0.07499700	         -0.00974782	          0.00000000	          0.00000000	          0.00000000	          0.00000000	         -1.86967338	          0.00000000	
          1.11200000	          0.00000000	          0.00000000	          0.00000000	          0.00000000	          0.00000000	          0.00000000	        159.80040447	        464.66272560	        -22.80759078	          0.03810435	         -0.07499612	         -0.00932285	          0.00000000	          0.00000000	          0.00000000	          0.00000000	         -1.84372949	          0.00000000	
          1.11600000	          0.00000000	          0.00000000	          0.00000000	          0.00000000	          0.00000000	          0.00000000	        153.23727743	        428.04025870	        -22.22356185	          0.03954822	         -0.07499516	         -0.00875600	          0.00000000	          0.00000000	          0.00000000	          0.00000000	         -1.80372501	          0.00000000	
          1.12000000	          0.00000000	          0.00000000	          0.00000000	          0.00000000	          0.00000000	          0.00000000	        144.72435176	        389.52878047	        -21.44437018	          0.04128821	         -0.07499500	         -0.00805011	          0.00000000	          0.00000000	          0.00000000	          0.00000000	         -1.74485026	          0.00000000	
          1.12400000	          0.00000000	          0.00000000	          0.00000000	          0.00000000	          0.00000000	          0.00000000	        134.36239413	        349.91142222	        -20.51592559	          0.04336533	         -0.07499424	         -0.00722425	          0.00000000	          0.00000000	          0.00000000	          0.00000000	         -1.66350199	          0.00000000	
          1.12800000	         -4.10024992	        117.38978146	          1.85616403	          0.73952980	          0.00000000	         -0.01795897	        122.39114539	        310.13612503	        -19.47667603	          0.04581507	         -0.07499328	         -0.00629067	          0.00000000	          2.23680928	          0.00000000	          0.00000000	         -1.55816868	          0.00000000	
          1.13200000	        -32.20174053	        387.56868642	         18.96541155	          0.74709955	          0.00000000	         -0.01801514	        109.21282882	        271.20127706	        -18.32694341	          0.04865802	         -0.07499300	         -0.00525411	          0.00000000	          3.12840622	          0.00000000	          0.00000000	         -1.42989414	          0.00000000	
          1.13600000	        -63.96167986	        623.21954723	         34.81269599	          0.75430023	          0.00000000	         -0.01816449	         95.47629083	        233.99358541	        -17.01706758	          0.05186601	         -0.07499257	         -0.00414345	          0.00000000	          3.82350645	          0.00000000	          0.00000000	         -1.28232506	          0.00000000	
          1.14000000	       -100.90071428	        799.69531917	         48.20475018	          0.76101652	          0.00000000	         -0.01847693	         82.08761819	        199.16552236	        -15.46777709	          0.05532263	         -0.07499273	         -0.00301601	          0.00000000	          4.17048120	          0.00000000	          0.00000000	         -1.12135669	          0.00000000	
          1.14400000	       -141.10222087	        908.86534069	         58.44684546	          0.76692081	          0.00000000	         -0.01895525	         69.93707743	        167.18244773	        -13.61887327	          0.05880868	         -0.07499300	         -0.00192538	          0.00000000	          4.05831086	          0.00000000	          0.00000000	         -0.95435260	          0.00000000	
          1.14800000	       -180.64746358	        958.66004438	         65.47763190	          0.77209143	          0.00000000	         -0.01952534	         59.47003497	        138.43454697	        -11.47933096	          0.06199596	         -0.07499300	         -0.00092625	          0.00000000	          3.44778782	          0.00000000	          0.00000000	         -0.78896298	          0.00000000	
          1.15200000	       -216.81366120	        965.93001170	         69.60822635	          0.77704887	          0.00000000	         -0.02009697	         50.53572788	        113.16053368	         -9.12998129	          0.06452650	         -0.07499396	         -0.00008942	          0.00000000	          2.39169978	          0.00000000	          0.00000000	         -0.63169725	          0.00000000	
          1.15600000	       -249.36085680	        948.31790304	         71.18804806	          0.78234250	          0.00000000	         -0.02063123	         42.66582013	         91.23954288	         -6.66073651	          0.06628563	         -0.07499588	          0.00053366	          0.00000000	          1.03578590	          0.00000000	          0.00000000	         -0.48664579	          0.00000000	
          1.16000000	       -278.83498971	        920.39432432	         70.52446099	          0.78802858	          0.00000000	         -0.02112229	         35.46245920	         72.18773482	         -4.11325655	          0.06748266	         -0.07499700	          0.00096947	          0.00000000	         -0.40361664	          0.00000000	          0.00000000	         -0.35497922	          0.00000000	
          1.16400000	       -304.74950350	        893.78483611	         68.04435569	          0.79357456	          0.00000000	         -0.02153313	         28.76355586	         55.42864014	         -1.49916617	          0.06829969	         -0.07499682	          0.00124475	          0.00000000	         -1.68496985	          0.00000000	          0.00000000	         -0.23561287	          0.00000000	
          1.16800000	       -325.85468506	        877.54489966	         64.45971730	          0.79832072	          0.00000000	         -0.02179855	         22.56907762	         40.52341319	          1.14634602	          0.06850857	         -0.07499655	          0.00124000	          0.00000000	         -2.60106740	          0.00000000	          0.00000000	         -0.12659864	          0.00000000	
          1.17200000	       -341.36986061	        876.99355037	         60.68127678	          0.80202030	          0.00000000	         -0.02189481	         16.89408469	         27.15756329	          3.75345904	          0.06744104	         -0.07499676	          0.00072878	          0.00000000	         -3.03372704	          0.00000000	          0.00000000	         -0.02628659	          0.00000000	
          1.17600000	       -351.25192723	        892.62382240	         57.43847721	          0.80477013	          0.00000000	         -0.02188766	         11.69097622	         15.04718648	          6.24741400	          0.06459539	         -0.07499724	         -0.00041333	          0.00000000	         -2.98200163	          0.00000000	          0.00000000	          0.06612738	          0.00000000	
          1.18000000	       -355.57261140	        921.00442257	         54.94079777	          0.80649897	          0.00000000	         -0.02187677	          0.00000000	          0.00000000	          0.00000000	          0.00000000	          0.00000000	          0.00000000	          0.00000000	         -2.55128078	          0.00000000	          0.00000000	          0.00000000	          0.00000000	
          1.18400000	       -354.42917162	        957.18943830	         53.02312051	          0.80690230	          0.00000000	         -0.02190908	          0.00000000	          0.00000000	          0.00000000	          0.00000000	          0.00000000	          0.00000000	          0.00000000	         -1.90738876	          0.00000000	          0.00000000	          0.00000000	          0.00000000	
          1.18800000	       -348.71782338	        996.57023969	         51.62180781	          0.80600557	          0.00000000	         -0.02197991	          0.00000000	          0.00000000	          0.00000000	          0.00000000	          0.00000000	          0.00000000	          0.00000000	         -1.21622744	          0.00000000	          0.00000000	          0.00000000	          0.00000000	
